<svg width="3955" height="1225" viewBox="0 0 3955 1225" fill="none" xmlns="http://www.w3.org/2000/svg">
<g opacity="0.5" clip-path="url(#clip0_5_89)">
<path d="M48.7382 711.334C210.794 878.594 432.018 1062.82 600.776 1002.42C774.049 940.409 732.727 677.509 920.186 591.135C1189.03 467.261 1508.22 901.127 1757.97 763.514C1919.32 674.61 1936.84 464.305 2088.02 460.496C2201.97 457.625 2243.31 581.21 2341.58 560.14C2472.03 532.17 2470.03 326.934 2596.21 306.412C2662.91 295.565 2694.65 349.635 2965.26 459.327C2994.47 471.167 3033.08 485.744 3073.22 472.201C3133.55 451.846 3122.19 390.758 3185.4 326.154C3249.43 260.71 3330.99 242.668 3455.64 225.204C3634.88 200.093 3790.86 232.67 3898.93 268.119" stroke="white" stroke-width="2.5" stroke-linecap="round" stroke-linejoin="round"/>
<path d="M51.3979 741.062C210.741 886.789 426.939 1051.47 595.653 992.104C610.226 986.963 623.331 980.454 635.299 972.91C766.304 890.323 753.787 682.93 923.45 609.963C977.277 586.772 1033.29 584.842 1090.87 594.645C1320.12 633.679 1549.98 855.278 1750.99 752.493C1914.73 669.213 1936.63 483.799 2086.25 477.056C2199.03 471.978 2238.89 580.218 2333.15 554.807C2363.23 546.699 2386.42 529.362 2406.64 508.638C2419.61 495.403 2431.11 480.721 2441.72 465.454C2484.42 404.005 2514.42 331.466 2590.28 323.045C2620.82 319.654 2644.59 329.567 2687 349.998C2703.19 357.798 2721.67 366.895 2744.06 376.813C2765.2 386.181 2789.36 396.475 2817.67 407.5C2847.97 419.299 2882.71 431.87 2923.53 445.788C2933.9 449.321 2944.67 452.895 2955.89 456.492C2977.65 463.468 3004.76 471.804 3033.92 468.842C3042.93 467.927 3052.14 465.914 3061.46 462.514C3113.34 443.56 3114.78 396.732 3156.44 347.035C3162.72 339.544 3169.98 332.08 3178.34 324.551C3221.17 286.262 3270.33 268.085 3333.48 256.668C3366.79 250.646 3404.31 247.111 3446.85 242.547C3469.87 240.155 3492.62 238.255 3515.04 236.662C3659.96 226.362 3786.92 249.29 3878.47 261.79" stroke="white" stroke-width="2.5" stroke-miterlimit="10" stroke-linecap="round"/>
<path d="M54.0577 770.789C210.688 894.984 421.86 1040.12 590.531 981.782C604.958 976.768 618.005 970.471 630.041 963.313C763.98 883.659 758.924 695.687 926.714 628.79C979.871 607.518 1035.35 605.833 1092.85 614.139C1324.7 647.624 1540.92 836.909 1744 741.472C1909.97 663.476 1936.41 503.292 2084.49 493.614C2196.09 486.331 2234.51 579.136 2324.72 549.473C2353.9 539.879 2376.71 521.835 2397.66 502.236C2411.11 489.651 2423.28 476.333 2434.37 462.638C2478.92 407.637 2509.74 344.026 2584.34 339.677C2614.71 337.907 2638.94 348.899 2681.05 368.134C2697.72 375.746 2716.34 384.206 2738.77 392.625C2760.25 400.689 2784.31 409.132 2812.06 417.598C2842.07 426.753 2875.77 435.82 2915.17 445.987C2925.2 448.577 2935.64 451.144 2946.52 453.657C2967.72 458.553 2994.12 464.88 3022.55 460.194C3031.4 458.736 3040.49 456.444 3049.69 452.828C3100.99 432.621 3105.7 387.441 3148.72 342.915C3155.26 336.144 3162.78 329.555 3171.29 322.948C3214.81 289.158 3263.73 275.511 3325.67 268.007C3358.59 264.018 3395.83 262.878 3438.05 259.889C3461.03 258.263 3483.86 256.816 3506.48 255.062C3645.7 244.266 3769.08 261.351 3858.01 255.46" stroke="white" stroke-width="2.5" stroke-miterlimit="10" stroke-linecap="round"/>
<path d="M56.7174 800.517C210.635 903.179 416.782 1028.76 585.408 971.461C599.69 966.574 612.684 960.494 624.784 953.718C761.706 877.036 764.062 708.444 929.978 647.618C982.465 628.265 1037.41 626.806 1094.84 633.632C1329.31 661.505 1531.99 818.783 1737.01 730.452C1905.33 657.935 1936.2 522.785 2082.73 510.174C2193.15 500.684 2230.16 577.955 2316.29 544.14C2344.59 533.031 2367.02 514.334 2388.67 495.835C2402.62 483.915 2415.43 471.95 2427.02 459.823C2473.39 411.289 2505.1 356.635 2578.4 356.31C2608.62 356.176 2633.32 368.197 2675.11 386.27C2692.26 393.687 2711.04 401.502 2733.48 408.437C2755.32 415.187 2779.31 421.772 2806.44 427.695C2836.23 434.198 2868.88 439.764 2906.8 446.186C2916.52 447.832 2926.62 449.39 2937.15 450.823C2957.82 453.634 2983.39 457.288 3011.19 451.546C3019.91 449.745 3028.84 446.975 3037.92 443.142C3088.64 421.682 3096.71 378.134 3141 338.795C3147.82 332.741 3155.59 327.045 3164.24 321.345C3208.53 292.126 3257.17 282.966 3317.85 279.346C3350.41 277.403 3387.37 278.725 3429.26 277.232C3452.2 276.414 3475.11 275.381 3497.92 273.463C3631.44 262.234 3751.24 273.412 3837.55 249.131" stroke="white" stroke-width="2.5" stroke-miterlimit="10" stroke-linecap="round"/>
<path d="M59.3773 830.244C210.582 911.373 411.703 1017.41 580.285 961.139C594.422 956.38 607.367 950.522 619.527 944.122C759.48 870.459 769.199 721.202 933.242 666.446C985.059 649.012 1039.48 647.759 1096.82 653.126C1333.95 675.317 1523.09 800.684 1730.03 719.431C1900.71 652.416 1935.99 542.279 2080.97 526.733C2190.21 515.037 2225.84 576.663 2307.86 538.806C2335.28 526.152 2357.34 506.835 2379.69 489.434C2394.14 478.18 2407.58 467.57 2419.67 457.007C2467.81 414.953 2500.49 369.298 2572.47 372.943C2602.54 374.466 2627.72 387.461 2669.17 404.406C2686.8 411.618 2705.75 418.778 2728.19 424.249C2750.41 429.669 2774.36 434.377 2800.83 437.793C2830.46 441.616 2862.03 443.686 2898.43 446.385C2907.86 447.083 2917.62 447.628 2927.78 447.988C2947.95 448.702 2972.7 450.009 2999.82 442.898C3008.4 440.649 3017.18 437.506 3026.16 433.456C3076.29 410.743 3087.83 368.831 3133.29 334.675C3140.39 329.335 3148.41 324.535 3157.18 319.742C3202.27 295.094 3250.63 290.459 3310.04 290.684C3342.24 290.807 3378.91 294.583 3420.46 294.575C3443.38 294.571 3466.36 293.952 3489.36 291.864C3617.19 280.262 3733.4 285.472 3817.09 242.802" stroke="white" stroke-width="2.5" stroke-miterlimit="10" stroke-linecap="round"/>
<path d="M62.037 859.972C210.529 919.568 406.625 1006.06 575.163 950.818C589.154 946.185 602.054 940.554 614.27 934.526C757.297 863.933 774.336 733.959 936.506 685.274C987.654 669.759 1041.55 668.694 1098.81 672.619C1338.61 689.059 1514.21 782.614 1723.04 708.411C1896.1 646.92 1935.77 561.772 2079.21 543.292C2187.27 529.39 2221.51 575.255 2299.43 533.473C2325.98 519.238 2347.67 499.338 2370.7 483.033C2385.66 472.446 2399.71 463.191 2412.32 454.192C2462.18 418.614 2495.9 382.022 2566.53 389.576C2596.47 392.778 2622.14 406.693 2663.22 422.542C2681.36 429.538 2700.49 436.029 2722.9 440.061C2745.52 444.13 2769.46 446.931 2795.22 447.89C2824.74 448.99 2855.23 447.568 2890.07 446.584C2899.2 446.325 2908.62 445.852 2918.41 445.153C2938.11 443.745 2962.03 442.717 2988.45 434.25C2996.89 431.548 3005.53 428.037 3014.39 423.77C3063.94 399.804 3079.05 359.56 3125.57 330.555C3132.98 325.932 3141.24 322.026 3150.13 318.139C3196.03 298.07 3244.12 297.996 3302.22 302.023C3334.09 304.231 3370.45 310.45 3411.67 311.917C3434.55 312.732 3457.6 312.527 3480.79 310.265C3602.94 298.35 3715.56 297.532 3796.63 236.472" stroke="white" stroke-width="2.5" stroke-miterlimit="10" stroke-linecap="round"/>
<path d="M64.6969 889.699C210.476 927.763 401.546 994.702 570.04 940.496C583.886 935.991 596.745 930.593 609.012 924.93C755.153 857.463 779.474 746.716 939.77 704.101C990.248 690.506 1043.63 689.61 1100.79 692.112C1343.29 702.728 1505.35 764.575 1716.06 697.39C1891.51 641.448 1935.56 581.265 2077.45 559.851C2184.32 543.743 2217.16 573.731 2291.01 528.139C2316.68 512.288 2338 491.845 2361.72 476.632C2377.18 466.715 2391.83 458.808 2404.97 451.376C2456.48 422.256 2491.32 394.809 2560.59 406.208C2590.4 411.114 2616.57 425.892 2657.28 440.678C2675.91 447.448 2695.23 453.254 2717.6 455.873C2740.64 458.568 2764.6 459.42 2789.6 457.987C2819.07 456.3 2848.91 453.882 2881.7 446.783C2890.44 444.89 2899.8 444.745 2909.04 442.318C2927.98 437.345 2951.35 435.41 2977.09 425.602C2985.38 422.443 2993.88 418.568 3002.62 414.084C3051.59 388.865 3070.39 350.35 3117.85 326.435C3125.59 322.536 3134.06 319.521 3143.07 316.536C3189.8 301.058 3237.62 305.583 3294.41 313.362C3325.95 317.682 3361.99 326.328 3402.87 329.26C3425.73 330.899 3448.85 331.11 3472.23 328.666C3588.69 316.496 3697.72 309.593 3776.16 230.143" stroke="white" stroke-width="2.5" stroke-miterlimit="10" stroke-linecap="round"/>
<path d="M67.3568 919.427C210.423 935.958 396.468 983.348 564.918 930.175C578.618 925.796 591.439 920.636 603.755 915.334C753.046 851.053 784.611 759.474 943.034 722.929C992.842 711.252 1045.71 710.508 1102.77 711.606C1347.97 716.323 1496.5 746.568 1709.07 686.369C1886.93 636.003 1935.34 600.758 2075.69 576.41C2181.38 558.096 2212.78 572.094 2282.58 522.806C2307.37 505.301 2328.33 484.356 2352.74 470.23C2368.71 460.987 2383.93 454.415 2397.63 448.561C2450.73 425.857 2486.75 407.661 2554.66 422.841C2584.34 429.477 2611.02 445.061 2651.33 458.814C2670.48 465.345 2689.99 470.452 2712.32 471.685C2735.77 472.979 2760.37 474.671 2783.99 468.085C2812.67 460.088 2841.74 455.141 2873.33 446.981C2881.92 444.763 2890.67 442.241 2899.67 439.483C2918.48 433.721 2940.66 428.089 2965.72 416.954C2973.87 413.334 2982.23 409.099 2990.86 404.398C3039.24 377.925 3061.81 341.23 3110.13 322.315C3118.21 319.153 3126.89 317.018 3136.02 314.933C3183.6 304.064 3231.13 313.223 3286.6 324.701C3317.81 331.16 3353.54 342.216 3394.08 346.603C3416.9 349.072 3440.09 349.699 3463.67 347.067C3574.44 334.699 3679.88 321.653 3755.7 223.813" stroke="white" stroke-width="2.5" stroke-miterlimit="10" stroke-linecap="round"/>
<path d="M70.0165 949.154C70.9305 949.122 71.8462 949.091 72.7638 949.061" stroke="white" stroke-width="2.5" stroke-miterlimit="10" stroke-linecap="round"/>
<path d="M78.2582 948.899C217.413 945.206 394.667 970.979 559.795 919.853C573.35 915.602 586.136 910.685 598.498 905.738C750.971 844.709 789.749 772.231 946.298 741.757C995.436 731.999 1047.79 731.388 1104.76 731.099C1352.66 729.843 1487.67 728.594 1702.09 675.349C1882.35 630.585 1935.13 620.252 2073.93 592.969C2178.44 572.449 2208.34 570.355 2274.15 517.472C2298.03 498.28 2318.67 476.871 2343.75 463.829C2360.23 455.261 2376.03 450.007 2390.28 445.745C2444.93 429.4 2482.17 420.575 2548.72 439.474C2578.27 447.867 2605.48 464.201 2645.39 476.95C2665.05 483.23 2684.75 487.622 2707.02 487.497C2730.9 487.362 2754.91 484.177 2778.38 478.182C2807.76 470.676 2834.99 458.81 2864.97 447.18C2873.28 443.952 2881.68 440.404 2890.3 436.648C2908.65 428.645 2929.98 420.754 2954.35 408.306C2962.36 404.22 2970.57 399.63 2979.09 394.712C3026.89 366.986 3053.31 332.222 3102.41 318.195C3110.84 315.788 3119.72 314.52 3128.96 313.33C3177.4 307.094 3224.63 320.915 3278.78 336.039C3309.67 344.667 3345.08 358.115 3385.29 363.946C3408.08 367.251 3431.34 368.297 3455.11 365.467C3559.5 353.04 3660.68 333.972 3733.76 219.81" stroke="white" stroke-width="2.5" stroke-miterlimit="10" stroke-linecap="round"/>
<path d="M3733.77 219.807C3734.26 219.037 3734.75 218.263 3735.24 217.484" stroke="white" stroke-width="2.5" stroke-miterlimit="10" stroke-linecap="round"/>
<path d="M72.6763 978.882C73.4625 978.73 74.2501 978.58 75.0388 978.431" stroke="white" stroke-width="2.5" stroke-miterlimit="10" stroke-linecap="round"/>
<path d="M81.1249 977.305C217.476 952.661 389.736 959.6 554.672 909.532C568.082 905.407 580.835 900.74 593.24 896.142C748.922 838.433 794.886 784.989 949.562 760.585C998.03 752.746 1049.87 752.251 1106.74 750.593C1357.34 743.287 1478.84 710.654 1695.1 664.328C1877.79 625.195 1934.92 639.745 2072.17 609.528C2175.5 586.802 2203.83 568.527 2265.72 512.139C2288.67 491.226 2309 469.391 2334.77 457.428C2351.76 449.538 2368.11 445.581 2382.93 442.93C2439.12 432.874 2477.56 433.547 2542.78 456.106C2572.2 466.282 2599.95 483.312 2639.45 495.086C2659.62 501.1 2679.51 504.765 2701.73 503.308C2726.03 501.716 2750.04 496.451 2772.76 488.28C2802.08 477.736 2828.22 462.407 2856.6 447.379C2864.64 443.121 2872.69 438.549 2880.93 433.813C2898.81 423.531 2919.28 413.407 2942.99 399.658C2950.84 395.102 2958.92 390.161 2967.32 385.025C3014.54 356.047 3044.16 318.356 3094.69 314.075C3103.59 313.321 3112.55 312.027 3121.91 311.727C3171.2 310.148 3218.12 328.657 3270.97 347.378C3301.53 358.202 3336.62 374.025 3376.49 381.288C3399.26 385.436 3422.59 386.905 3446.55 383.868C3545.44 371.333 3643.16 346.044 3713.66 213.286" stroke="white" stroke-width="2.5" stroke-miterlimit="10" stroke-linecap="round"/>
<path d="M3713.66 213.285C3714.03 212.578 3714.41 211.867 3714.78 211.154" stroke="white" stroke-width="2.5" stroke-miterlimit="10" stroke-linecap="round"/>
<path d="M75.336 1008.61C75.9823 1008.38 76.6291 1008.15 77.2768 1007.92" stroke="white" stroke-width="2.5" stroke-miterlimit="10" stroke-linecap="round"/>
<path d="M83.7623 1005.67C217.343 960.06 384.717 948.25 549.55 899.211C562.814 895.213 575.536 890.8 587.983 886.546C746.895 832.228 800.023 797.746 952.826 779.413C1000.62 773.493 1051.95 773.097 1108.73 770.086C1362.03 756.655 1470.01 692.747 1688.12 653.307C1873.23 619.834 1934.7 659.238 2070.4 626.087C2172.56 601.155 2199.24 566.629 2257.29 506.805C2279.28 484.145 2299.34 461.915 2325.78 451.027C2343.29 443.818 2360.2 441.136 2375.58 440.114C2433.31 436.278 2472.94 446.572 2536.85 472.739C2566.11 484.723 2594.42 502.396 2633.5 513.222C2654.2 518.956 2674.45 523.132 2696.44 519.12C2720.95 514.652 2745.13 508.672 2767.15 498.377C2796.35 484.72 2821.4 465.949 2848.23 447.578C2855.98 442.273 2863.69 436.682 2871.56 430.979C2888.93 418.388 2908.58 406.05 2931.62 391.01C2939.33 385.981 2947.27 380.692 2955.56 375.339C3002.2 345.108 3036.36 314.568 3086.97 309.955C3096.11 309.122 3105.38 309.538 3114.85 310.124C3165.01 313.226 3211.59 336.443 3263.16 358.717C3293.36 371.764 3328.16 389.944 3367.7 398.631C3390.43 403.626 3413.84 405.526 3437.99 402.269C3531.35 389.681 3625.58 358.098 3693.48 206.716" stroke="white" stroke-width="2.5" stroke-miterlimit="10" stroke-linecap="round"/>
<path d="M3693.48 206.71C3693.76 206.084 3694.04 205.455 3694.32 204.825" stroke="white" stroke-width="2.5" stroke-miterlimit="10" stroke-linecap="round"/>
<path d="M77.996 1038.34C78.5023 1038.07 79.0094 1037.8 79.5169 1037.54" stroke="white" stroke-width="2.5" stroke-miterlimit="10" stroke-linecap="round"/>
<path d="M86.2347 1034.07C217.07 967.457 379.63 936.919 544.427 888.889C557.546 885.018 570.237 880.866 582.726 876.95C744.886 826.098 805.161 810.503 956.089 798.24C1003.22 794.24 1054.03 793.927 1110.71 789.58C1366.69 769.947 1461.19 674.873 1681.13 642.287C1868.67 614.501 1934.49 678.732 2068.64 642.646C2169.61 615.508 2194.55 564.681 2248.86 501.472C2269.85 477.041 2289.68 454.444 2316.8 444.625C2334.82 438.101 2352.3 436.675 2368.23 437.299C2427.52 439.621 2468.27 459.642 2530.91 489.372C2560.01 503.185 2588.9 521.454 2627.56 531.358C2648.78 536.795 2669 538.981 2691.15 534.932C2716.28 530.341 2740.18 520.856 2761.54 508.474C2790.56 491.645 2814.52 469.46 2839.86 447.777C2847.3 441.415 2854.66 434.809 2862.19 428.144C2879.02 413.229 2897.87 398.683 2920.26 382.362C2927.81 376.856 2935.62 371.223 2943.79 365.653C2989.85 334.169 3027.85 305.908 3079.26 305.835C3088.74 305.821 3098.21 307.053 3107.8 308.521C3158.8 316.326 3205.02 344.266 3255.34 370.055C3285.18 385.349 3319.7 405.873 3358.9 415.974C3381.6 421.822 3404.99 423.372 3429.43 420.67C3517.6 410.921 3607.95 370.153 3673.24 200.109" stroke="white" stroke-width="2.5" stroke-miterlimit="10" stroke-linecap="round"/>
<path d="M3673.24 200.102C3673.45 199.568 3673.65 199.032 3673.86 198.495" stroke="white" stroke-width="2.5" stroke-miterlimit="10" stroke-linecap="round"/>
<path d="M80.6556 1068.06C81.0296 1067.8 81.4038 1067.54 81.7784 1067.28" stroke="white" stroke-width="2.5" stroke-miterlimit="10" stroke-linecap="round"/>
<path d="M88.552 1062.58C216.671 974.897 374.478 925.608 539.305 878.568C552.279 874.824 564.94 870.937 577.468 867.354C742.888 820.044 810.298 823.261 959.353 817.068C1005.81 814.986 1056.1 814.742 1112.7 809.073C1371.34 783.166 1452.37 657.032 1674.15 631.266C1864.11 609.197 1934.27 698.225 2066.88 659.205C2166.67 629.861 2189.77 562.703 2240.44 496.138C2260.39 469.923 2280.02 446.977 2307.81 438.224C2326.35 432.387 2344.4 432.2 2360.88 434.483C2421.77 442.918 2463.57 472.749 2524.97 506.005C2553.89 521.667 2583.38 540.488 2621.61 549.494C2643.36 554.618 2663.73 556.061 2685.86 550.744C2711.38 544.617 2735.18 533.02 2755.92 518.572C2784.7 498.531 2807.58 472.963 2831.5 447.976C2838.6 440.553 2845.63 432.935 2852.82 425.309C2869.07 408.064 2887.15 391.31 2908.89 373.714C2916.28 367.729 2923.96 361.754 2932.03 355.967C2977.5 323.229 3019.28 297.332 3071.54 301.715C3081.36 302.538 3091.03 304.572 3100.74 306.918C3152.57 319.443 3198.42 352.117 3247.53 381.394C3276.98 398.953 3311.23 421.811 3350.11 433.317C3372.77 440.023 3396.24 442.078 3420.86 439.071C3503.45 428.987 3590.28 382.173 3652.96 193.477" stroke="white" stroke-width="2.5" stroke-miterlimit="10" stroke-linecap="round"/>
<path d="M3652.96 193.472C3653.11 193.038 3653.25 192.602 3653.4 192.166" stroke="white" stroke-width="2.5" stroke-miterlimit="10" stroke-linecap="round"/>
<path d="M83.3156 1097.79C83.5717 1097.56 83.8281 1097.34 84.0846 1097.11" stroke="white" stroke-width="2.5" stroke-miterlimit="10" stroke-linecap="round"/>
<path d="M90.8013 1091.22C216.219 982.397 369.292 914.305 534.182 868.246C547.011 864.629 559.643 861.013 572.211 857.758C740.898 814.069 815.436 836.018 962.617 835.896C1008.41 835.733 1058.17 835.543 1114.68 828.567C1375.97 796.312 1443.54 639.221 1667.16 620.246C1859.54 603.921 1934.06 717.718 2065.12 675.765C2163.73 644.214 2184.9 560.714 2232.01 490.805C2250.88 462.796 2270.36 439.515 2298.83 431.823C2317.88 426.677 2336.52 427.717 2353.53 431.668C2416.07 446.187 2458.83 485.883 2519.04 522.637C2547.75 540.165 2577.87 559.498 2615.67 567.63C2637.95 572.422 2658.44 573.125 2680.58 566.556C2706.46 558.873 2730.13 545.178 2750.31 528.669C2778.76 505.397 2800.58 476.475 2823.13 448.175C2829.89 439.692 2836.58 431.063 2843.44 422.474C2859.09 402.903 2876.42 383.932 2897.52 365.066C2904.76 358.6 2912.31 352.285 2920.26 346.281C2965.15 312.29 3010.63 288.816 3063.82 297.595C3073.97 299.27 3083.86 302.092 3093.69 305.315C3146.33 322.571 3191.78 359.988 3239.72 392.733C3268.75 412.57 3302.76 437.757 3341.32 450.659C3363.94 458.23 3387.5 460.844 3412.3 457.472C3489.27 447.006 3572.58 394.186 3632.65 186.832" stroke="white" stroke-width="2.5" stroke-miterlimit="10" stroke-linecap="round"/>
<path d="M3632.65 186.828C3632.74 186.498 3632.84 186.167 3632.94 185.836" stroke="white" stroke-width="2.5" stroke-miterlimit="10" stroke-linecap="round"/>
<path d="M85.9752 1127.52C86.131 1127.35 86.2866 1127.18 86.4422 1127.02" stroke="white" stroke-width="2.5" stroke-miterlimit="10" stroke-linecap="round"/>
<path d="M93.0113 1119.99C215.739 989.97 364.083 903.006 529.059 857.925C541.743 854.435 554.345 851.094 566.954 848.162C738.909 808.172 820.573 848.775 965.881 854.724C1011 856.48 1060.23 856.33 1116.66 848.06C1380.58 809.386 1434.72 621.871 1660.18 609.225C1854.99 599.043 1933.85 737.212 2063.36 692.324C2160.79 658.567 2179.94 558.734 2223.58 485.471C2241.33 455.667 2260.71 432.113 2289.85 425.422C2309.41 421.007 2328.65 423.23 2346.18 428.852C2410.41 449.442 2454.04 499.036 2513.1 539.27C2541.58 558.675 2572.35 578.486 2609.73 585.767C2632.53 590.209 2653.14 590.179 2675.28 582.368C2701.53 573.111 2725.03 557.343 2744.7 538.767C2772.76 512.26 2793.54 480.008 2814.76 448.374C2821.16 438.836 2827.52 429.197 2834.07 419.639C2849.09 397.751 2865.67 376.551 2886.16 356.418C2893.23 349.47 2900.66 342.816 2908.49 336.595C2952.8 301.351 3001.91 280.338 3056.1 293.475C3066.56 296.01 3076.68 299.614 3086.63 303.712C3140.07 325.705 3185.1 367.869 3231.9 404.072C3260.5 426.197 3294.28 453.71 3332.52 468.002C3355.1 476.441 3378.86 480.176 3403.74 475.873C3474.84 463.577 3554.85 406.19 3612.3 180.175" stroke="white" stroke-width="2.5" stroke-miterlimit="10" stroke-linecap="round"/>
<path d="M3612.31 180.174C3612.36 179.952 3612.42 179.729 3612.47 179.507" stroke="white" stroke-width="2.5" stroke-miterlimit="10" stroke-linecap="round"/>
<path d="M88.6351 1157.25L88.7502 1157.1" stroke="white" stroke-width="2.5" stroke-miterlimit="10" stroke-linecap="round"/>
<path d="M95.1286 1148.99C215.19 997.663 358.827 891.719 523.937 847.603C536.475 844.24 549.047 841.18 561.696 838.566C736.917 802.354 825.711 861.533 969.145 873.551C1013.6 877.227 1062.28 877.105 1118.65 867.554C1385.15 822.392 1425.86 603.916 1653.19 598.204C1850.4 593.645 1933.63 756.705 2061.6 708.883C2157.85 672.92 2174.89 556.776 2215.15 480.138C2231.75 448.541 2251.04 424.633 2280.86 419.021C2300.94 415.284 2320.78 418.742 2338.83 426.037C2404.8 452.696 2449.21 512.201 2507.16 555.903C2535.4 577.193 2566.83 597.452 2603.78 603.902C2627.12 607.976 2647.82 607.226 2669.99 598.18C2696.57 587.337 2719.89 569.521 2739.08 548.864C2766.7 519.132 2786.47 483.567 2806.4 448.573C2812.43 437.986 2818.45 427.336 2824.7 416.805C2839.07 392.61 2854.92 369.168 2874.79 347.77C2881.69 340.338 2889.01 333.347 2896.73 326.909C2940.45 290.412 2993.11 271.876 3048.38 289.354C3059.14 292.756 3069.48 297.152 3079.58 302.109C3133.76 328.929 3178.39 375.753 3224.09 415.41C3252.23 439.828 3285.77 469.732 3323.73 485.345C3346.24 494.693 3370.13 498.901 3395.18 494.273C3460.69 482.171 3537.06 418.222 3591.9 173.663" stroke="white" stroke-width="2.5" stroke-miterlimit="10" stroke-linecap="round"/>
<path d="M3591.94 173.496C3591.97 173.39 3591.99 173.284 3592.01 173.178" stroke="white" stroke-width="2.5" stroke-miterlimit="10" stroke-linecap="round"/>
<circle cx="91.2947" cy="1186.97" r="1.25" transform="rotate(-8.6885 91.2947 1186.97)" fill="white"/>
<path d="M97.4473 1177.86C223.613 992.36 374.614 861.932 556.439 828.97C790.113 786.608 882.29 932.859 1120.63 887.047C1389.69 835.332 1416.99 585.962 1646.2 587.183C1845.8 588.247 1933.42 776.198 2059.84 725.442C2194.55 671.356 2168.23 428.021 2271.88 412.619C2292.46 409.561 2312.93 414.255 2331.49 423.221C2399.22 455.955 2444.33 525.37 2501.23 572.536C2529.19 595.717 2561.3 616.398 2597.84 622.039C2621.7 625.722 2642.49 624.267 2664.7 613.992C2691.6 601.553 2714.72 581.717 2733.47 558.961C2760.6 526.021 2779.37 487.154 2798.03 448.772C2816.69 410.39 2835.78 371.637 2863.42 339.122C2908.32 286.311 2974.28 259.571 3040.66 285.234C3111.13 312.479 3163.34 375.62 3216.28 426.749C3260.45 469.416 3319.21 526.023 3386.62 512.674C3446.57 500.802 3519.32 430.198 3571.55 166.848" stroke="white" stroke-width="2.5" stroke-miterlimit="10" stroke-linecap="round"/>
<circle cx="3571.55" cy="166.848" r="1.25" transform="rotate(-8.6885 3571.55 166.848)" fill="white"/>
</g>
<defs>
<clipPath id="clip0_5_89">
<rect width="3902.75" height="641.879" fill="white" transform="translate(0 589.558) rotate(-8.6885)"/>
</clipPath>
</defs>
</svg>
